<?xml version="1.0" standalone="no"?>
<!DOCTYPE svg PUBLIC "-//W3C//DTD SVG 20010904//EN"
 "http://www.w3.org/TR/2001/REC-SVG-20010904/DTD/svg10.dtd">
<svg version="1.0" xmlns="http://www.w3.org/2000/svg"
 width="2182.000000pt" height="2182.000000pt" viewBox="0 0 2182.000000 2182.000000"
 preserveAspectRatio="xMidYMid meet">
<metadata>
Created by potrace 1.14, written by Peter Selinger 2001-2017
</metadata>
<g transform="translate(0.000000,2182.000000) scale(0.100000,-0.100000)"
fill="#000000" stroke="none">
<path d="M11129 21803 c-30 -7 -74 -26 -99 -41 -43 -27 -47 -27 -90 -15 -63
18 -147 18 -211 -1 -92 -27 -150 -75 -208 -173 -68 -115 -90 -182 -98 -299 -5
-63 -2 -76 23 -125 15 -30 27 -65 25 -79 -9 -71 -2 -182 16 -250 11 -42 18
-84 16 -95 -8 -38 -9 -180 -2 -215 4 -19 10 -52 13 -74 7 -46 53 -186 67 -202
26 -31 -38 -38 -166 -18 -82 13 -161 59 -236 138 -25 26 -45 37 -76 41 -23 2
-65 14 -95 26 -125 50 -326 7 -425 -91 -18 -18 -33 -37 -33 -42 0 -5 -18 -7
-42 -3 -33 4 -50 1 -75 -14 -60 -38 -102 -132 -99 -225 1 -33 -1 -36 -19 -30
-82 27 -149 11 -200 -48 -64 -75 -84 -175 -59 -298 42 -205 147 -248 266 -109
l41 47 20 -39 c25 -51 99 -116 150 -131 27 -8 46 -23 62 -48 43 -69 116 -120
170 -120 35 0 91 54 107 102 12 36 18 41 48 45 94 10 169 112 174 235 5 122
-27 233 -89 306 -24 28 -26 36 -17 60 12 29 15 52 13 91 -2 34 -68 95 -126
116 -68 25 -72 31 -34 50 124 65 278 54 280 -19 2 -162 56 -247 165 -261 65
-8 107 7 209 74 67 44 81 50 84 35 2 -9 -5 -24 -16 -33 -10 -9 -26 -26 -36
-37 -18 -22 -18 -22 22 -45 23 -12 41 -30 41 -38 0 -21 44 -194 65 -255 9 -27
18 -56 20 -65 25 -112 37 -175 40 -222 2 -31 6 -76 9 -100 3 -24 8 -71 11
-104 3 -33 8 -68 11 -77 2 -9 6 -25 8 -35 2 -11 12 -49 21 -85 9 -36 13 -78
10 -94 -20 -106 -1 -264 57 -464 28 -100 35 -146 22 -159 -3 -3 -36 -6 -72 -6
-55 0 -77 6 -119 29 -29 16 -55 38 -59 50 -10 34 -33 54 -83 72 -25 10 -55 25
-66 34 -38 32 -130 77 -170 84 -58 10 -56 10 -100 34 -22 13 -55 46 -74 74
-19 27 -49 61 -67 75 -43 32 -306 153 -335 153 -12 0 -118 32 -236 70 -402
132 -446 140 -556 101 -82 -28 -157 -90 -263 -217 -28 -34 -38 -40 -64 -36
-33 5 -51 -18 -31 -42 14 -17 11 -20 -88 -67 -46 -22 -115 -62 -152 -89 -89
-66 -131 -84 -295 -122 -168 -39 -193 -40 -299 -10 -47 13 -139 14 -183 2 -28
-7 -53 -24 -76 -52 -20 -23 -36 -45 -36 -50 0 -5 -16 -42 -35 -83 -71 -152
-68 -265 10 -347 19 -20 39 -38 45 -40 5 -1 19 -36 30 -77 36 -127 86 -200
166 -241 42 -21 64 -24 154 -25 89 -1 110 -5 140 -23 44 -28 65 -28 84 -1 18
26 7 61 -32 102 l-27 29 38 30 c20 16 37 34 37 39 0 5 11 27 25 47 61 92 93
280 63 366 -20 60 -87 97 -140 77 -14 -5 -33 -2 -51 7 -48 24 -110 26 -172 7
-65 -21 -114 -62 -170 -145 -20 -30 -39 -57 -41 -59 -10 -11 -34 72 -28 97 21
81 95 143 242 198 74 28 89 30 121 21 20 -6 81 -11 136 -11 l101 -1 118 69
c65 37 151 90 190 117 l71 48 25 -24 c38 -36 142 -71 224 -77 31 -2 43 -9 65
-38 14 -19 34 -41 43 -48 22 -16 23 -40 4 -67 -16 -24 -44 -142 -40 -170 2
-11 -1 -45 -7 -75 -6 -30 -12 -64 -15 -76 -3 -19 -9 -21 -77 -16 -61 3 -76 1
-91 -14 -28 -28 -15 -70 63 -194 60 -95 71 -120 71 -156 0 -24 13 -83 29 -131
25 -75 28 -99 24 -159 -5 -65 -4 -72 17 -87 27 -19 62 -10 122 31 108 75 219
206 277 327 26 54 35 86 38 140 2 38 9 95 16 125 7 30 12 61 11 68 -1 6 -2 21
-3 32 0 11 -14 34 -29 51 -24 27 -36 32 -81 34 -29 2 -65 0 -81 -5 -26 -7 -30
-5 -44 24 -17 36 -23 117 -13 186 26 182 7 264 -64 272 -13 2 -32 13 -42 25
-10 13 -42 30 -70 38 -45 13 -56 22 -80 61 -28 47 -28 64 1 64 9 1 49 13 89
29 56 22 87 43 135 90 35 35 74 68 88 75 56 30 116 8 292 -107 64 -42 141 -87
171 -101 75 -33 103 -92 106 -224 1 -31 48 -77 158 -154 98 -68 131 -109 204
-255 l31 -62 -16 -54 c-9 -30 -22 -57 -30 -60 -10 -4 -12 -18 -9 -50 5 -40 2
-47 -33 -83 -22 -21 -68 -63 -103 -93 -87 -75 -114 -118 -117 -188 -4 -96 57
-207 108 -198 45 9 63 40 61 105 -2 73 7 76 75 23 43 -35 47 -41 46 -78 -1
-22 -18 -101 -38 -175 -37 -141 -43 -192 -26 -250 12 -43 72 -100 105 -100 38
0 146 117 270 291 60 85 128 175 151 201 61 69 104 198 87 259 -16 53 -124
118 -288 173 -91 30 -95 32 -116 66 -30 48 -42 106 -44 210 -1 96 -3 110 -30
158 -16 29 -52 77 -81 105 -58 57 -76 93 -76 149 1 48 15 74 52 93 52 27 81
19 119 -32 18 -25 39 -66 46 -92 24 -91 52 -127 120 -156 39 -16 172 -48 250
-60 129 -19 230 -60 275 -111 28 -33 30 -40 31 -122 0 -48 2 -96 5 -107 2 -11
5 -58 6 -105 2 -72 -3 -100 -29 -180 -18 -52 -36 -122 -42 -155 -32 -183 -35
-548 -6 -685 6 -29 7 -133 0 -170 -2 -14 -6 -45 -9 -70 -6 -44 -14 -99 -21
-150 -3 -14 -7 -43 -9 -65 -11 -83 -48 -259 -66 -309 -30 -85 -31 -90 -45
-466 -6 -143 -6 -409 -1 -440 3 -14 7 -47 11 -74 5 -39 24 -136 60 -296 2 -8
15 -63 29 -122 68 -285 74 -317 81 -443 3 -71 8 -152 10 -180 9 -119 15 -384
9 -423 -5 -31 -10 -42 -20 -38 -9 3 -14 -1 -14 -12 -1 -9 -6 -29 -13 -44 l-12
-28 -47 59 c-26 33 -58 86 -72 119 -31 77 -75 141 -140 204 -51 50 -213 176
-252 196 -12 6 -36 37 -54 68 -18 32 -57 82 -87 112 l-54 54 82 102 c46 55 96
115 112 131 51 53 65 110 42 174 -20 59 -62 108 -121 141 -40 23 -53 37 -58
61 -5 28 -1 37 39 76 72 69 86 137 40 191 l-25 30 35 38 c44 49 65 94 67 139
2 53 -42 100 -160 171 -127 76 -145 92 -138 119 15 59 -61 75 -80 17 -5 -18
-18 -40 -28 -50 -17 -16 -17 -16 -5 10 10 24 10 31 -6 48 -10 11 -27 20 -37
20 -60 0 -173 -91 -213 -173 -33 -68 -27 -106 26 -151 l39 -33 -26 -24 c-123
-115 -70 -245 129 -320 36 -14 62 -31 68 -43 5 -12 14 -28 21 -37 10 -14 5
-25 -29 -63 -22 -25 -43 -60 -47 -77 -9 -44 -7 -92 3 -108 6 -9 1 -29 -15 -59
-27 -51 -29 -71 -10 -123 l13 -37 -56 36 c-180 114 -228 157 -360 322 -165
205 -314 367 -413 446 -36 28 -37 31 -42 111 -11 169 -73 262 -233 354 -29 17
-53 35 -53 40 0 24 -129 137 -185 163 -33 15 -67 31 -75 36 -10 5 -15 22 -14
55 1 64 31 91 151 134 69 24 105 44 143 78 49 44 51 45 70 28 11 -10 27 -40
36 -69 26 -79 41 -103 70 -110 20 -5 33 -1 50 15 35 32 46 80 49 198 2 98 5
112 37 185 40 89 70 131 110 152 40 21 64 17 88 -13 34 -43 22 -88 -58 -221
-75 -125 -102 -197 -96 -256 5 -59 13 -74 49 -96 42 -26 82 -23 178 14 75 28
99 31 202 21 64 -6 72 -5 94 16 21 20 23 28 18 82 -7 75 -54 171 -140 287
l-64 86 4 68 c5 76 -8 106 -56 131 -42 21 -118 37 -179 36 -121 -1 -186 -47
-261 -189 -46 -86 -104 -157 -155 -188 -22 -14 -45 -18 -92 -15 -77 3 -151
-26 -197 -79 -18 -20 -61 -52 -97 -71 -73 -38 -149 -109 -168 -155 -11 -25
-22 -33 -60 -42 -26 -6 -96 -23 -157 -38 -60 -14 -131 -37 -156 -51 l-46 -25
-39 20 c-22 11 -87 36 -146 56 -59 20 -171 69 -250 110 -230 119 -355 162
-463 158 -119 -4 -213 -67 -265 -177 -38 -80 -38 -122 0 -225 16 -44 31 -101
32 -125 1 -40 -2 -46 -55 -95 -87 -80 -106 -166 -65 -286 17 -51 19 -68 10
-86 -28 -56 -18 -134 21 -166 23 -19 94 -22 152 -6 28 7 67 11 89 8 44 -5 94
21 115 59 7 13 26 32 42 41 28 16 32 17 48 2 28 -26 60 -19 95 19 26 28 40 35
81 39 103 8 239 50 307 92 115 73 158 181 123 310 -20 74 -19 76 45 94 49 14
70 12 70 -4 0 -38 77 -58 135 -36 20 7 38 6 68 -4 51 -17 187 -71 242 -96 22
-10 96 -39 165 -65 138 -52 157 -64 273 -175 l80 -77 -43 -1 c-50 -2 -113 -18
-155 -39 -28 -14 -165 -113 -193 -140 -7 -7 -39 -13 -70 -14 -58 -1 -108 -5
-173 -13 -52 -7 -139 -43 -179 -74 -30 -24 -43 -27 -99 -26 -121 3 -156 -24
-155 -120 3 -176 164 -314 353 -301 57 4 158 36 196 61 32 23 36 16 8 -13 -80
-86 -74 -160 19 -250 56 -54 120 -76 227 -78 233 -5 392 93 400 246 5 98 -64
270 -137 344 -104 104 -190 102 -355 -9 -34 -23 -68 -42 -75 -41 -7 0 -25 20
-42 44 -22 34 -27 49 -19 63 5 10 13 18 18 18 4 0 28 16 53 36 39 30 56 36
110 40 128 10 189 40 297 142 44 42 64 46 109 23 35 -19 137 -131 154 -171 14
-32 66 -90 196 -217 97 -94 185 -180 195 -190 247 -255 290 -294 662 -593 141
-113 233 -202 227 -218 -9 -27 109 -181 254 -332 118 -123 152 -162 232 -265
l62 -81 -2 -2609 c-2 -1964 -6 -2604 -14 -2585 -21 46 -218 331 -243 350 -3 3
-31 34 -61 70 -30 35 -84 94 -120 131 -211 216 -359 374 -425 454 -28 33 -52
62 -55 65 -14 13 -150 202 -191 265 -149 227 -354 646 -420 855 -4 14 -24 70
-44 125 l-36 100 6 -60 c28 -263 141 -677 255 -930 9 -22 34 -78 55 -125 31
-72 60 -130 149 -295 91 -169 281 -442 431 -620 50 -59 123 -146 163 -193 150
-180 285 -410 362 -616 34 -93 74 -222 85 -274 2 -9 10 -48 19 -87 27 -124 48
-261 62 -418 3 -40 8 -88 11 -107 2 -19 7 -168 10 -330 3 -163 9 -297 14 -298
5 -2 86 -55 178 -117 l169 -113 1 3716 c0 2045 3 3735 6 3757 13 83 37 164 92
305 145 373 205 473 411 684 102 104 273 259 279 252 10 -10 -44 -162 -107
-296 -131 -280 -157 -366 -161 -522 -3 -131 46 -171 151 -122 29 13 53 24 53
24 1 0 0 -25 -1 -55 -6 -89 36 -116 168 -105 59 4 272 130 373 220 118 105
126 240 26 428 -22 41 -36 78 -33 83 3 6 8 32 11 59 10 99 -45 208 -125 249
-41 21 -42 21 -75 21 -21 0 -27 9 -45 71 -12 39 -20 75 -17 79 5 9 161 67 197
74 13 2 46 10 73 16 64 15 196 15 258 1 116 -27 135 -47 163 -168 20 -88 36
-124 76 -173 28 -36 32 -47 29 -88 -9 -119 6 -162 57 -162 49 0 92 69 101 163
1 4 10 -2 21 -13 41 -41 120 -17 198 60 23 23 57 46 76 51 23 6 37 18 46 38
14 35 8 58 -32 123 l-29 47 39 65 c36 59 39 71 36 123 -10 154 -103 333 -174
333 -28 0 -50 11 -50 24 0 7 -11 23 -25 36 -14 13 -25 27 -25 31 0 4 18 14 40
23 190 76 491 252 671 393 30 23 59 43 65 43 15 -1 125 -87 185 -146 73 -71
117 -153 124 -230 7 -85 16 -137 26 -155 6 -12 -9 -50 -51 -131 -149 -287
-172 -455 -75 -551 58 -57 172 -69 346 -36 l66 12 66 -37 c76 -43 109 -51 139
-35 58 31 122 155 125 243 1 46 7 64 26 85 99 107 102 253 6 335 -51 43 -101
57 -222 62 -114 4 -155 15 -187 50 -22 23 -24 34 -27 154 l-3 130 -61 120
c-73 143 -127 199 -242 250 l-74 32 50 47 c77 70 161 156 282 286 129 138 112
119 201 221 l71 81 10 -28 c15 -39 64 -66 156 -86 63 -13 81 -21 87 -38 5 -12
29 -41 55 -66 88 -82 123 -134 136 -202 17 -84 45 -112 123 -121 66 -9 277 -9
316 -1 14 3 54 8 90 11 86 9 97 14 158 69 51 47 62 71 42 91 -8 8 -7 20 1 40
16 41 22 263 7 305 -17 53 -97 168 -158 229 -75 76 -134 102 -235 105 -70 2
-129 -5 -356 -40 -46 -7 -46 -7 -53 25 -10 53 -61 88 -153 104 -31 5 -33 4
-33 -23 0 -23 -4 -28 -17 -25 -14 4 -25 -11 -48 -58 -22 -46 -35 -63 -50 -63
-14 0 -25 -12 -35 -36 -14 -35 -53 -85 -165 -210 -27 -30 -86 -96 -130 -145
-101 -114 -425 -441 -445 -450 -8 -4 -59 -8 -114 -10 -54 -1 -110 -5 -123 -9
-31 -7 -32 -9 53 105 57 75 177 198 224 230 23 15 206 185 273 253 178 181
289 388 437 812 66 189 60 179 133 214 73 35 189 58 266 53 l52 -4 -6 -40 c-4
-22 -12 -49 -18 -59 -13 -21 -84 -59 -110 -59 -9 0 -19 -4 -22 -10 -3 -5 -13
-10 -21 -10 -9 0 -46 -12 -82 -26 -131 -51 -225 -197 -162 -251 14 -12 20 -30
20 -58 1 -115 83 -127 145 -20 21 36 34 46 63 51 22 4 48 2 66 -6 100 -41 142
-51 184 -45 53 8 122 36 145 60 53 53 215 123 322 139 87 13 145 38 176 75 54
65 33 113 -72 166 l-53 27 49 42 c41 36 48 48 47 76 -1 29 -11 43 -63 90 l-62
56 60 61 c69 69 84 109 58 149 -21 33 -53 44 -129 44 -95 0 -146 -30 -263
-156 -112 -121 -144 -144 -201 -144 -31 0 -41 -4 -44 -17 -2 -10 -12 -18 -23
-19 -11 0 -33 -6 -50 -13 -16 -7 -59 -15 -95 -18 -36 -2 -95 -15 -132 -27 -38
-12 -68 -21 -68 -19 0 2 7 20 15 40 8 19 15 39 15 43 0 11 -57 33 -69 26 -5
-3 -23 -42 -40 -86 -29 -76 -37 -86 -155 -203 -68 -67 -155 -163 -193 -214
-75 -101 -193 -294 -273 -448 -141 -269 -179 -340 -247 -457 -80 -137 -98
-159 -213 -258 -41 -36 -88 -77 -105 -91 -27 -25 -290 -251 -410 -354 -27 -23
-77 -66 -110 -94 -44 -38 -128 -85 -321 -181 -144 -72 -264 -130 -267 -130 -3
0 -108 -49 -232 -110 -124 -60 -228 -110 -230 -110 -9 0 -74 130 -85 170 -36
135 -148 277 -261 332 -148 72 -324 66 -492 -17 -106 -52 -159 -98 -231 -200
-31 -43 -22 -3 34 163 55 162 85 293 78 344 -1 13 -13 38 -26 57 -36 49 -48
105 -46 206 5 240 4 304 -6 355 -16 87 -29 149 -39 189 -28 102 -34 204 -16
266 17 60 46 89 200 205 206 154 265 228 345 429 36 93 101 215 136 257 31 39
64 72 154 154 36 33 39 34 157 18 6 -1 29 -17 50 -36 44 -40 134 -85 204 -103
32 -8 49 -18 49 -28 0 -10 23 -25 63 -40 130 -50 141 -75 79 -181 -26 -46 -56
-79 -102 -115 -140 -107 -214 -211 -251 -350 -20 -74 -15 -199 10 -265 48
-126 157 -211 264 -205 104 7 220 92 282 207 15 29 46 68 67 86 71 62 154 242
174 376 4 27 16 65 27 84 12 21 21 56 23 91 3 50 -1 62 -25 92 -15 19 -33 53
-39 76 -22 75 -129 163 -227 188 -49 11 -58 13 -136 20 -40 4 -89 13 -107 21
-18 7 -65 20 -105 28 -40 9 -87 20 -106 26 -36 10 -111 58 -111 70 0 10 -45
28 -93 37 l-37 8 53 71 c48 63 84 126 100 176 12 36 416 253 425 228 2 -4 -6
-50 -16 -102 -40 -193 -9 -302 107 -376 39 -25 71 -57 102 -102 49 -72 101
-112 139 -108 62 6 136 98 124 155 -4 19 0 42 11 62 21 41 13 81 -23 116 -25
26 -27 32 -25 107 1 45 5 83 8 86 12 12 66 4 116 -18 94 -40 172 -31 195 22
17 37 -2 83 -59 142 -61 62 -122 86 -218 86 -45 0 -66 6 -98 27 -23 15 -49 28
-59 30 -46 9 -120 9 -161 0 -25 -5 -113 -11 -196 -12 -82 -1 -163 -6 -180 -9
-48 -11 -175 -65 -233 -98 -154 -88 -373 -289 -495 -453 -4 -5 -23 -32 -43
-58 -61 -82 -83 -148 -99 -290 -9 -91 -23 -155 -42 -195 -22 -47 -124 -148
-232 -231 -80 -62 -83 -63 -77 -35 40 184 63 378 57 492 -1 12 -14 36 -31 54
-16 17 -30 36 -31 42 0 6 -2 18 -4 27 -2 14 4 66 19 143 7 39 15 99 21 166 3
30 9 86 14 124 8 75 6 261 -3 322 -4 24 -1 45 8 59 28 42 56 144 56 200 0 75
-22 115 -114 205 -46 44 -80 87 -84 105 -8 31 -7 45 23 205 11 57 18 146 18
225 1 156 -10 198 -93 366 -65 128 -76 163 -86 262 -8 80 8 90 47 30 30 -47
105 -86 215 -113 105 -26 158 -26 185 1 l20 20 32 -24 c61 -46 98 -60 191 -72
25 -3 50 0 152 21 41 8 49 -20 24 -88 -12 -34 -23 -67 -24 -74 -4 -26 -15 -25
-84 5 -117 51 -183 39 -265 -48 -88 -94 -141 -214 -125 -284 16 -74 67 -109
159 -109 35 0 71 7 91 17 77 39 80 39 78 -2 -4 -75 0 -93 28 -123 15 -17 37
-32 50 -33 19 -1 22 -5 16 -22 -3 -11 -8 -36 -11 -55 -6 -42 25 -77 79 -89 40
-9 169 -5 246 8 31 5 96 8 143 6 76 -4 92 -1 141 22 30 14 60 35 68 46 19 30
21 108 4 135 -17 26 -20 80 -9 168 l8 62 39 5 c49 7 83 37 96 86 16 66 -21
258 -68 351 -28 55 -107 157 -135 176 -25 16 -27 16 -56 -12 -40 -37 -76 -109
-84 -165 -3 -24 -8 -51 -10 -59 -2 -8 -7 -40 -10 -70 -10 -81 -27 -112 -83
-153 l-51 -36 -36 29 c-21 17 -41 27 -46 24 -4 -2 -17 4 -27 14 -10 10 -28 25
-41 34 -32 22 -32 42 -1 127 22 61 25 80 18 110 -17 67 -81 89 -188 67 -96
-21 -162 -1 -267 78 -54 41 -70 62 -127 164 -77 137 -86 177 -56 245 11 26 25
47 29 47 5 0 16 -20 25 -45 23 -60 93 -131 135 -137 36 -5 99 21 114 47 14 26
25 16 18 -17 -4 -18 -6 -58 -4 -88 2 -45 7 -59 28 -77 15 -13 38 -23 53 -23
33 0 87 32 102 60 15 29 11 204 -7 265 -18 61 -22 130 -12 203 6 42 17 66 52
110 83 108 86 164 13 274 l-17 26 78 -29 c79 -29 140 -36 172 -20 10 6 26 28
36 50 24 54 12 81 -54 119 -37 21 -66 29 -107 31 -93 4 -154 33 -214 102 -29
34 -66 66 -82 71 -15 6 -28 14 -28 19 0 4 6 6 13 3 9 -3 16 16 25 68 14 82 12
98 -17 156 -52 102 -181 156 -302 125z m-100 -900 c31 -15 58 -28 60 -29 12
-10 -71 -125 -172 -238 -123 -136 -153 -207 -157 -366 l-2 -65 -13 60 c-7 33
-22 81 -34 107 -20 46 -21 90 -6 168 7 35 18 174 19 245 l1 60 62 16 c34 10
86 28 115 42 29 14 57 26 62 26 5 1 34 -11 65 -26z m573 -5794 c69 -23 130
-62 186 -118 69 -69 80 -88 94 -161 l15 -72 -41 -26 c-23 -14 -66 -41 -96 -60
-321 -202 -547 -418 -690 -659 -24 -40 -45 -73 -46 -73 -4 0 3 198 11 360 13
245 16 276 36 375 5 28 11 61 14 74 16 86 69 202 115 255 38 43 117 94 173
111 64 21 159 18 229 -6z m2787 -51 c6 -18 7 -28 2 -23 -10 12 -25 55 -18 55
3 0 10 -15 16 -32z m-1879 -162 c0 -7 -109 -88 -153 -115 -20 -13 -65 -29 -99
-37 -34 -8 -93 -30 -129 -48 -53 -27 -69 -31 -73 -20 -3 9 7 20 27 31 68 36
174 86 276 129 58 24 115 49 126 54 25 11 25 11 25 6z m517 -598 c-3 -7 -5 -2
-5 12 0 14 2 19 5 13 2 -7 2 -19 0 -25z"/>
<path d="M5991 11528 c-11 -57 -23 -121 -27 -143 -3 -22 -7 -47 -9 -55 -3 -8
-7 -44 -10 -80 -4 -36 -8 -72 -10 -80 -7 -26 -18 -241 -18 -350 0 -104 12
-340 18 -350 1 -3 5 -32 9 -65 3 -33 8 -71 11 -85 3 -14 10 -54 16 -90 25
-145 112 -460 162 -580 5 -14 11 -29 13 -35 16 -66 196 -436 281 -579 29 -49
53 -90 53 -93 0 -2 8 -16 19 -31 10 -15 55 -83 100 -150 109 -164 246 -349
361 -486 136 -162 161 -190 330 -377 108 -119 516 -518 670 -655 30 -27 64
-58 76 -70 12 -11 93 -83 180 -159 88 -76 173 -150 189 -164 45 -39 369 -307
460 -381 44 -35 82 -67 85 -70 9 -10 727 -581 850 -675 35 -28 73 -58 85 -67
11 -9 94 -75 185 -148 91 -72 172 -136 180 -143 8 -7 85 -68 170 -137 85 -69
163 -132 174 -140 294 -236 532 -472 708 -700 75 -98 198 -275 198 -285 0 -4
8 -19 19 -33 25 -37 77 -132 124 -227 162 -331 255 -679 283 -1065 12 -159 5
-517 -11 -580 -2 -8 -7 -40 -10 -70 -3 -30 -8 -66 -10 -80 -3 -14 -7 -41 -10
-60 -12 -71 -37 -188 -61 -285 -14 -55 -27 -104 -28 -110 -2 -5 -9 -30 -16
-55 -7 -25 -14 -50 -16 -56 -1 -6 -18 -60 -39 -120 -146 -426 -342 -821 -593
-1192 -35 -52 -62 -95 -60 -97 9 -9 191 93 338 189 468 308 852 760 1059 1249
70 165 147 412 165 527 3 19 8 46 11 60 4 23 12 72 20 140 22 170 22 473 0
634 -4 32 -25 166 -30 201 -65 383 -278 888 -548 1295 -61 92 -201 286 -217
300 -3 3 -25 30 -50 60 -229 281 -547 576 -875 811 -98 70 -283 192 -342 225
-99 55 -514 301 -641 380 -79 49 -152 94 -162 99 -56 32 -429 280 -608 403
-344 239 -887 656 -1057 813 -22 20 -56 50 -75 65 -19 16 -42 36 -50 44 -9 8
-60 56 -115 105 -133 120 -440 427 -545 544 -47 52 -92 102 -102 112 -9 9 -70
82 -135 161 -449 541 -767 1087 -947 1628 -49 148 -98 321 -110 390 -2 14 -11
59 -19 100 -9 41 -19 102 -23 135 -3 33 -8 69 -11 80 -22 106 -21 667 1 704 7
11 18 101 13 101 -2 0 -14 -46 -26 -102z m4484 -5996 c190 -117 486 -329 581
-417 6 -5 44 -39 85 -75 199 -176 400 -395 563 -614 394 -529 608 -1058 654
-1611 9 -103 7 -401 -2 -485 -20 -184 -86 -497 -130 -615 -17 -46 -21 -36 -6
15 6 19 12 46 15 60 3 14 7 36 10 50 18 86 44 257 50 325 4 44 9 89 12 100 5
26 4 422 -1 455 -2 14 -7 52 -11 85 -11 104 -46 297 -72 390 -46 172 -52 190
-81 270 -64 176 -150 361 -240 520 -90 157 -275 429 -376 553 -6 7 -16 18 -21
25 -6 7 -23 28 -39 47 -241 294 -595 618 -959 876 -209 148 -217 159 -32 46z"/>
<path d="M12620 11557 c0 -3 4 -17 10 -31 35 -94 144 -540 175 -716 27 -161
47 -288 60 -400 8 -74 18 -153 20 -175 32 -269 38 -999 10 -1200 -2 -16 -6
-59 -9 -95 -8 -88 -14 -140 -27 -235 -18 -140 -20 -148 -34 -230 -8 -44 -17
-93 -20 -110 -2 -16 -7 -41 -10 -55 -3 -14 -10 -47 -15 -75 -17 -85 -17 -86
-75 -325 -41 -169 -186 -603 -246 -737 -11 -23 -19 -47 -19 -53 0 -5 -4 -18
-10 -28 -5 -9 -26 -53 -45 -97 -20 -44 -45 -102 -58 -129 -28 -64 -177 -359
-207 -411 -12 -22 -34 -60 -48 -85 -158 -278 -400 -634 -610 -896 l-41 -50 64
-55 c35 -30 68 -54 73 -54 11 0 79 84 200 248 94 126 252 354 252 362 0 2 23
38 50 79 28 42 50 77 50 80 0 2 17 33 38 67 208 342 442 860 581 1279 35 106
110 351 116 379 6 26 7 30 44 171 16 63 30 110 30 103 1 -10 -19 -112 -35
-178 -3 -11 -7 -31 -10 -45 -45 -222 -157 -593 -262 -865 -240 -628 -575
-1215 -968 -1701 l-33 -40 79 -79 c44 -43 81 -77 83 -74 2 2 32 40 68 84 91
111 213 273 288 380 109 155 291 438 291 451 0 3 8 18 19 32 75 108 268 506
374 772 96 239 230 682 260 855 3 17 10 55 17 85 6 30 13 71 16 90 3 19 7 46
10 60 2 14 6 34 8 46 2 12 7 45 11 75 3 30 8 61 10 69 2 8 7 49 10 90 4 41 8
82 10 90 27 144 27 891 0 1080 -2 14 -6 57 -10 95 -3 39 -11 102 -16 140 -5
39 -12 86 -14 105 -3 19 -7 49 -9 65 -5 33 -43 246 -51 285 -3 14 -8 41 -11
60 -3 19 -9 49 -14 65 -5 17 -12 46 -15 65 -3 19 -8 43 -11 52 -3 9 -7 25 -9
35 -18 89 -96 380 -130 493 -60 194 -132 412 -184 560 -56 158 -71 195 -71
177z"/>
<path d="M10664 4622 c-39 -37 -122 -114 -185 -172 -184 -169 -713 -702 -867
-873 -648 -722 -1017 -1304 -1142 -1805 -16 -64 -33 -151 -38 -192 -10 -81 -8
-282 2 -345 78 -459 399 -796 1121 -1179 l70 -37 -45 37 c-126 103 -293 296
-369 424 -90 152 -168 358 -195 515 -3 17 -9 48 -13 70 -10 52 -10 374 0 445
66 480 314 993 742 1532 251 317 638 713 1025 1049 98 86 82 71 199 178 50 45
91 86 91 91 0 15 -128 152 -139 148 -8 -3 -70 -58 -250 -223 -134 -122 -522
-507 -621 -615 -18 -19 -58 -62 -89 -95 -31 -33 -90 -98 -131 -145 -41 -46
-82 -91 -90 -99 -34 -36 -222 -264 -311 -376 -267 -338 -448 -629 -578 -927
-44 -102 -97 -248 -105 -289 -2 -13 -11 -51 -19 -84 -13 -52 -20 -89 -33 -190
-1 -11 -3 -58 -3 -104 -1 -111 -10 -100 -12 15 -2 109 10 220 35 329 21 94 29
123 50 188 119 365 403 845 755 1277 47 58 93 114 101 124 63 79 305 349 434
485 113 118 464 469 551 551 44 41 121 114 171 161 l91 88 -59 55 c-32 31 -62
56 -66 56 -4 -1 -39 -31 -78 -68z"/>
<path d="M11074 4087 c-10 -11 -263 -234 -320 -282 l-24 -21 0 -1299 c0 -1298
0 -1299 21 -1342 44 -92 173 -124 256 -64 22 16 49 48 61 71 20 42 20 44 20
1496 0 800 0 1454 -1 1454 -1 -1 -7 -6 -13 -13z"/>
</g>
</svg>
